<?xml version="1.0" encoding="utf-8"?>
<!-- Generator: Adobe Illustrator 25.3.1, SVG Export Plug-In . SVG Version: 6.00 Build 0)  -->
<svg version="1.1" xmlns="http://www.w3.org/2000/svg" xmlns:xlink="http://www.w3.org/1999/xlink" x="0px" y="0px"
	 viewBox="0 0 340 142" style="enable-background:new 0 0 340 142;" xml:space="preserve">
<style type="text/css">
	.st0{opacity:0.7;fill-rule:evenodd;clip-rule:evenodd;fill:#13748C;enable-background:new    ;}
	
		.st1{opacity:0.7;fill-rule:evenodd;clip-rule:evenodd;fill:#CC7E9D;stroke:#00758D;stroke-width:7.7731;stroke-miterlimit:10;enable-background:new    ;}
	
		.st2{opacity:0.7;fill-rule:evenodd;clip-rule:evenodd;fill:#CC7E9D;stroke:#00758D;stroke-width:7.3785;stroke-miterlimit:10;enable-background:new    ;}
	
		.st3{opacity:0.7;fill-rule:evenodd;clip-rule:evenodd;fill:#CC7E9D;stroke:#00758D;stroke-width:7.3918;stroke-miterlimit:10;enable-background:new    ;}
	
		.st4{opacity:0.7;fill-rule:evenodd;clip-rule:evenodd;fill:#CC7E9D;stroke:#00758D;stroke-width:7;stroke-miterlimit:10;enable-background:new    ;}
	.st5{opacity:0.7;fill:#13748C;enable-background:new    ;}
	.st6{fill:none;stroke:#000000;stroke-width:7.0763;stroke-linecap:round;stroke-miterlimit:10;}
	.st7{fill:none;stroke:#000000;stroke-width:7.0488;stroke-linecap:round;stroke-miterlimit:10;}
</style>
<g id="Layer_1">
	<path class="st1" d="M159.7,90.9l0.1-0.4c1.2-3.5,2.9-9.4,3.7-15.2c0.4-2.9,0.6-5.8,0.5-8.3c-0.1-2.6-0.6-4.6-1.3-6
		c-2.1-4.1-5.7-7-9.9-9c-4.1-1.9-8.4-2.8-11.4-3.1c-2.8,0-7.3,0.2-11.6,0.6c-2.2,0.2-4.3,0.6-6.1,1c-1.9,0.4-3.2,0.9-4.1,1.3
		c-1.5,0.8-3,2.8-4.3,5.5c-1.2,2.5-1.9,5.1-2.3,6.8c0.1,4.6,0.4,11.5,1,17.7c0.3,3.2,0.7,6.2,1.1,8.6c0.2,1.2,0.5,2.2,0.7,3
		c0.3,0.8,0.4,1.2,0.5,1.3c1.5,2.3,3.2,4.4,6.6,6.1c3.5,1.8,9.2,3.3,18.7,3.5c7,0.2,11.2-2.1,13.8-4.8c2.7-2.8,3.8-6.2,4-8.3
		L159.7,90.9z"/>
	<path class="st2" d="M75.8,41.2c3.8,5.6,7.1,14.5,7.8,22.9c0.8,8.8-1.4,15.8-7.1,18.8c-6.8,3.6-15.5,4.9-22.8,3.5
		c-7.2-1.5-12.6-5.5-14.1-12.4c-3.4-15.4,5.4-28.1,7.3-30.5c0,0,0,0,0,0c0,0,0.2-0.2,0.7-0.5c0.6-0.4,1.4-0.8,2.4-1.2
		c2-0.9,4.6-1.8,7.6-2.4C63.5,38.1,70.2,38.1,75.8,41.2z"/>
	<path class="st3" d="M196.2,63.2c-1.8,1.3-5.8,4.7-7.6,8.2c-1.2,2.3-2.9,6.6-3.9,11.2c-1.1,4.7-1.3,9-0.3,11.8
		c1.3,3.4,2.8,6.2,5.6,8.5c2.9,2.3,7.4,4.4,15.2,5.6c14.7,2.4,22.6-5.2,24.7-9.7c0.4-0.9,0.9-3,1.1-6.2c0.2-3,0.3-6.6,0.1-10.2
		c-0.2-3.6-0.6-7.1-1.3-10c-0.7-3.1-1.5-4.8-2.1-5.4c-0.2-0.2-0.8-0.6-1.8-1.1c-1-0.5-2.2-0.9-3.7-1.3c-2.9-0.9-6.5-1.5-10.2-1.9
		c-3.7-0.4-7.3-0.5-10.3-0.4c-1.5,0.1-2.8,0.2-3.8,0.5C197,62.8,196.4,63,196.2,63.2z"/>
	<path class="st4" d="M298.3,54.6c1.8,1.4,3.6,3.3,4.2,5.7c0.5,2.1,0.5,5.4,0.1,9.1c-0.4,3.8-1.2,8.2-2.6,12.5
		c-1.4,4.3-3.3,8.6-5.9,12c-2.6,3.4-6.2,6.1-10.8,6.6c-8.4,0.9-13.9-3.2-17.1-7.6c-1.6-2.1-2.7-4.4-3.3-6.2
		c-0.3-0.9-0.6-1.7-0.8-2.4c-0.1-0.6-0.3-1.3-0.3-1.9c0-0.1,0-0.3,0-0.5c0-1.7-0.2-7,0.2-12.5c0.2-3.2,0.6-6.5,1.4-9.5
		c0.4-1.5,0.9-2.9,1.5-4.1c0.6-1.2,1.5-2.5,2.7-3.3c5-3.6,10.1-4.6,12.3-4.6c2.6,0,7.5,1.2,11.9,3C294.1,52,296.4,53.2,298.3,54.6z"
		/>
</g>
<g id="Layer_2">
	<path class="st5" d="M346.7-2.6l-7.4-1.3c0,0.1-0.3,1.7-0.9,4.5h-71.6c1.4-5.1,2.7-9.6,3.8-13.2l-7.2-2.3c0,0.1-1.4,4.5-3.3,11.5
		l-3.6-0.4c0,0.1-0.2,1.6-0.5,4.3h-70c0-2.5,0-3.9,0-3.9l-7.5-0.4c-0.2,1.5-0.3,2.9-0.5,4.3H99c-0.5-4.1-1-6.7-1.1-7.2l-7.5,0.7
		c0,2.2,0.1,4.4,0.1,6.5H7.2C7-1.9,6.9-3.4,6.8-3.5L-0.7-3c0,0.2,0.1,1.5,0.3,3.6h-0.3v141.1H340V26.6
		C344.3,10.8,346.5-1.1,346.7-2.6z M332.6,8v16.8c-2.4,8.5-5.4,18.2-9,27.8c-9.5,24.9-25.6,54.6-48.1,54.6c0,0,0,0,0,0
		c-5.8,0-10.2-2.1-13.4-6.5c-12.3-16.8-4.7-62.3,2.8-92.7H332.6z M255.2,8c-1.3,10-3.6,25.2-6.9,41.2c-7.5,35.6-16.8,58.7-27.1,66.7
		c-3.1,2.4-6.1,3.3-9.2,2.9c-17.9-2.6-26.2-5.2-29.9-19.2c-1.8-6.9-2.6-16.2-2.2-30.1c1.4-7,2.6-14.8,3.5-23.3
		C185,31.4,185.7,17.3,186,8H255.2z M177.3,8c-2.9,26.3-4.6,45.7-5,60.5c-4,20.2-9.7,34-16.7,40.3c-3.3,2.9-6.8,4.1-10.7,3.7
		c-19.8-2.4-29.7-5.8-36.2-19.7c-4-8.6-6.7-21.3-8.4-40.7c1.7-16.1,0.8-32.6-0.4-44H177.3z M90.6,8c0.3,17.3,1,31.8,2,44
		C91.2,65.2,87.8,77.7,81,85.8c-5,6-11.5,8.9-19.6,8.9C24.3,94.8,11.8,34,8.2,8H90.6z M332.6,134.4H6.8V39.5c0.8,3,1.7,6.1,2.7,9.2
		c11.3,35,29.2,53.5,51.9,53.5c10.4,0,18.9-3.9,25.4-11.6c3.8-4.5,6.6-10,8.7-16.2c6.5,35.6,20.4,42.1,48.4,45.4
		c6.1,0.7,11.7-1.1,16.6-5.5c4.9-4.3,9.1-11.2,12.6-20.6c0.4,2.9,0.9,5.5,1.5,7.8c5,18.8,17.6,22,36.1,24.7c0.9,0.1,1.8,0.2,2.7,0.2
		c4.3,0,8.4-1.5,12.3-4.6c8.5-6.6,16-20.7,22.5-42.1c0.9,11.1,3.4,19.6,7.7,25.4c4.6,6.4,11.2,9.6,19.4,9.6c0,0,0,0,0.1,0
		c27.5,0,45.9-33.5,57.1-64.7V134.4z"/>
</g>
</svg>
