<?xml version="1.0" encoding="utf-8"?>
<!-- Generator: Adobe Illustrator 25.3.1, SVG Export Plug-In . SVG Version: 6.00 Build 0)  -->
<svg version="1.1" xmlns="http://www.w3.org/2000/svg" xmlns:xlink="http://www.w3.org/1999/xlink" x="0px" y="0px"
	 viewBox="0 0 340 142" style="enable-background:new 0 0 340 142;" xml:space="preserve">
<style type="text/css">
	.st0{opacity:0.7;fill-rule:evenodd;clip-rule:evenodd;fill:#13748C;enable-background:new    ;}
	
		.st1{opacity:0.7;fill-rule:evenodd;clip-rule:evenodd;fill:#CC7E9D;stroke:#00758D;stroke-width:7.7731;stroke-miterlimit:10;enable-background:new    ;}
	
		.st2{opacity:0.7;fill-rule:evenodd;clip-rule:evenodd;fill:#CC7E9D;stroke:#00758D;stroke-width:7.3785;stroke-miterlimit:10;enable-background:new    ;}
	
		.st3{opacity:0.7;fill-rule:evenodd;clip-rule:evenodd;fill:#CC7E9D;stroke:#00758D;stroke-width:7.3918;stroke-miterlimit:10;enable-background:new    ;}
	
		.st4{opacity:0.7;fill-rule:evenodd;clip-rule:evenodd;fill:#CC7E9D;stroke:#00758D;stroke-width:7;stroke-miterlimit:10;enable-background:new    ;}
	.st5{opacity:0.7;fill:#13748C;enable-background:new    ;}
	.st6{opacity:0.7;}
	.st7{fill:#8A1739;}
	.st8{opacity:0.7;fill:#C9809E;}
	.st9{opacity:0.7;fill:none;stroke:#035B70;stroke-width:11.1899;stroke-linecap:round;stroke-miterlimit:10;}
</style>
<g id="Layer_1">
</g>
<g id="Layer_2">
	<g class="st6">
		<path class="st7" d="M48.5,110c14.9,0,27-12.1,27-27V59.3c0-3.2-2.9-5.7-5-7.2c-12.5-9-29.8-9.2-43-0.5c-2.7,1.8-5.9,4.3-5.9,7.7
			V83C21.6,97.9,33.7,110,48.5,110z M28.7,59.8c0.2-0.3,0.9-1,2.7-2.2c10.8-7.1,24.8-7,34.9,0.3c1.4,1,1.9,1.6,2.1,1.9V83
			c0,11-8.9,19.9-19.9,19.9S28.7,94,28.7,83V59.8z"/>
		<path class="st7" d="M129.1,120c14.9,0,27-12.1,27-27V69.3c0-3.2-2.9-5.7-5-7.2c-12.5-9-29.8-9.2-43-0.5c-2.7,1.8-5.9,4.3-5.9,7.7
			V93C102.1,107.9,114.2,120,129.1,120z M109.2,69.8c0.2-0.3,0.9-1,2.7-2.2c10.8-7.1,24.8-7,34.9,0.3c1.4,1,1.9,1.6,2.1,1.9V93
			c0,11-8.9,19.9-19.9,19.9S109.2,104,109.2,93V69.8z"/>
		<path class="st7" d="M231.6,52.1c-12.5-9-29.8-9.2-43-0.5c-2.7,1.8-5.9,4.3-5.9,7.7V83c0,14.9,12.1,27,27,27s27-12.1,27-27V59.3
			C236.6,56.1,233.7,53.7,231.6,52.1z M229.5,83c0,11-8.9,19.9-19.9,19.9S189.8,94,189.8,83V59.8c0.2-0.3,0.9-1,2.7-2.2
			c10.8-7.1,24.8-7,34.9,0.3c1.4,1,1.9,1.6,2.1,1.9V83z"/>
		<path class="st7" d="M292.4,90c14.9,0,27-12.1,27-27V39.3c0-3.2-2.9-5.7-5-7.2c-12.5-9-29.8-9.2-43-0.5c-2.7,1.8-5.9,4.3-5.9,7.7
			V63C265.5,77.9,277.6,90,292.4,90z M272.5,39.8c0.2-0.3,0.9-1,2.7-2.2c10.8-7.1,24.8-7,34.9,0.3c1.4,1,1.9,1.6,2.1,1.9V63
			c0,11-8.9,19.9-19.9,19.9S272.5,74,272.5,63V39.8z"/>
		<path class="st7" d="M340.7-25.5c-0.1-4.2-3.5-7.7-7.8-7.8c-4.4-0.1-8,3.4-8.1,7.8c-0.2,8.4-0.3,16.8-0.4,25.2h-63.9
			c-0.1-6-0.2-12-0.4-18.1c-0.1-4.2-3.5-7.6-7.7-7.7c-4.4-0.1-8.1,3.3-8.2,7.7c-0.1,2.6-0.1,5.2-0.2,7.8c-1.2,1.4-2,3.1-2,5.1
			c0,1.7-0.1,3.4-0.1,5.2H177c-0.9-3.2-3.9-5.7-7.4-5.8c-3.7-0.1-6.9,2.4-7.9,5.8H96.9c0-1.7-0.1-3.4-0.1-5.2
			c-0.1-4.2-3.5-7.7-7.8-7.8c-4.4-0.1-8,3.4-8.1,7.8c0,1.7-0.1,3.4-0.1,5.2H15.9C15-3.5,12.1-6,8.5-6.1C4.8-6.2,1.6-3.7,0.6-0.3
			h-0.7v19.6c-0.2,12.1-0.1,24.3,0,36.4v86.6h340.2V64.7c0.2-1,0.4-2.1,0.5-3.2c0.1-1.9,0.1-3.3,0.1-4.9l0.1-9.1
			C341.1,23.2,341.2-1.1,340.7-25.5z M324.4,6.8c0,13.6,0.1,27.2,0.2,40.8l0.1,9.1l0.1,4.3c0,1.2,0.1,2.5,0.2,3.8c0,0.6,0,1.3,0,1.9
			c0,0.6,0,1.3-0.1,1.9c-0.1,1.3-0.4,2.6-0.8,3.8c-0.7,2.5-1.7,5-3,7.3c-1.3,2.3-2.8,4.6-4.5,6.6c-1.7,2.1-3.7,4-5.9,5.6
			c-4.4,3.2-9.6,5.4-15.1,5.9c-5.4,0.6-11-0.3-16-2.6c-5-2.3-9.3-5.9-12.6-10.1c-3.3-4.3-5.7-9.2-6.8-14.3c-0.4-2.6-0.3-5.2-0.2-7.7
			c0-0.6,0-1.2,0.1-1.9c0-0.3,0-0.6,0-0.9l0-1l0.1-4.6c0.3-16,0.5-31.9,0.4-47.9H324.4z M241.8,67.6l0.1,9.1L242,81
			c0,1.2,0.1,2.5,0.2,3.8c0,0.6,0,1.3,0,1.9c0,0.6,0,1.3-0.1,1.9c-0.1,1.3-0.4,2.6-0.8,3.8c-0.7,2.5-1.7,5-3,7.3
			c-1.3,2.3-2.8,4.6-4.5,6.6c-1.7,2.1-3.7,4-5.9,5.6c-4.4,3.2-9.6,5.4-15.1,5.9c-5.4,0.6-11-0.3-16-2.6c-5-2.3-9.3-5.9-12.6-10.1
			c-3.3-4.3-5.7-9.2-6.8-14.3c0-0.3-0.1-0.6-0.1-0.8c0-1.2,0-2.2,0.1-3.2l0.1-9.1c0.1-6.3,0.1-12.6,0.2-18.9
			c0.2-17.3,0.2-34.6-0.2-52h64.3C241.5,27,241.5,47.3,241.8,67.6z M161.3,6.8c-0.4,17.3-0.4,34.6-0.2,52c0,6.3,0.1,12.6,0.2,18.9
			l0.1,9.1l0.1,4.3c0,1.2,0.1,2.5,0.2,3.8c0,0.6,0,1.3,0,1.9c0,0.6,0,1.3-0.1,1.9c-0.1,1.3-0.4,2.6-0.8,3.8c-0.7,2.5-1.7,5-3,7.3
			c-1.3,2.3-2.8,4.6-4.5,6.6c-1.7,2.1-3.7,4-5.9,5.6c-4.4,3.2-9.6,5.4-15.1,5.9c-5.4,0.6-11-0.3-16-2.6c-5-2.3-9.3-5.9-12.6-10.1
			c-3.3-4.3-5.7-9.2-6.8-14.3c-0.4-2.6-0.3-5.2-0.2-7.7c0-0.6,0-1.2,0.1-1.9c0-0.3,0-0.6,0-0.9l0-1l0.1-4.6
			c0.4-18.1,0.5-36.3,0.3-54.4c0-7.8-0.1-15.7-0.2-23.5H161.3z M80.5,30.2c-0.2,18.1,0,36.3,0.3,54.4l0.1,4.6c0,0.1,0,0.3,0,0.4
			c-0.2,0.9-0.4,1.8-0.7,2.7c-0.7,2.5-1.7,5-3,7.3c-1.3,2.3-2.8,4.6-4.5,6.6c-1.7,2.1-3.7,4-5.9,5.6c-4.4,3.2-9.6,5.4-15.1,5.9
			c-5.4,0.6-11-0.3-16-2.6c-5-2.3-9.3-5.9-12.6-10.1c-3.3-4.3-5.7-9.2-6.8-14.3c-0.4-2.6-0.3-5.2-0.2-7.7c0-0.6,0-1.2,0.1-1.9
			c0-0.3,0-0.6,0-0.9l0-1l0.1-4.6c0.4-22.6,0.6-45.3,0-67.9h64.3C80.5,14.6,80.5,22.4,80.5,30.2z M7,99.9c0.7,1.3,1.5,2.6,2.3,3.9
			c1.9,2.9,4.1,5.5,6.5,7.9c4.8,4.8,10.6,8.4,16.9,10.8c6.3,2.4,13.1,3.3,19.7,2.8c13-1.1,25.3-8,33.5-18.6c0,0.1,0.1,0.2,0.1,0.3
			c0.4,0.8,0.8,1.6,1.1,2.3c0.8,1.5,1.7,3,2.6,4.5c1.9,2.9,4.1,5.5,6.5,7.9c4.8,4.8,10.6,8.4,16.9,10.8c3.6,1.4,7.5,2.3,11.4,2.7H7
			V99.9z M134,135.2c13-1.4,25.3-8.6,33.3-19.4c2-2.8,3.8-5.8,5.2-9c0,0,0-0.1,0-0.1c1.4,1.8,2.8,3.4,4.4,5
			c4.8,4.8,10.6,8.4,16.9,10.8c6.3,2.4,13.1,3.3,19.7,2.8c13.4-1.2,26.1-8.5,34.2-19.5c2-2.8,3.8-5.8,5.2-9c0.7-1.6,1.3-3.2,2-4.9
			l0.9-2.5c0.2-0.4,0.3-0.9,0.4-1.4c1.1,1.3,2.2,2.5,3.3,3.6c4.8,4.8,10.6,8.4,16.9,10.8c6.3,2.4,13.1,3.3,19.7,2.8
			c13.4-1.2,26.1-8.5,34.2-19.5c0.9-1.2,1.7-2.5,2.5-3.8v53.2H134z"/>
	</g>
</g>
</svg>
