<?xml version="1.0" encoding="utf-8"?>
<!-- Generator: Adobe Illustrator 25.3.1, SVG Export Plug-In . SVG Version: 6.00 Build 0)  -->
<svg version="1.1" xmlns="http://www.w3.org/2000/svg" xmlns:xlink="http://www.w3.org/1999/xlink" x="0px" y="0px"
	 viewBox="0 0 340 142" style="enable-background:new 0 0 340 142;" xml:space="preserve">
<style type="text/css">
	.st0{opacity:0.7;fill-rule:evenodd;clip-rule:evenodd;fill:#13748C;enable-background:new    ;}
	
		.st1{opacity:0.7;fill-rule:evenodd;clip-rule:evenodd;fill:#CC7E9D;stroke:#00758D;stroke-width:7.7731;stroke-miterlimit:10;enable-background:new    ;}
	
		.st2{opacity:0.7;fill-rule:evenodd;clip-rule:evenodd;fill:#CC7E9D;stroke:#00758D;stroke-width:7.3785;stroke-miterlimit:10;enable-background:new    ;}
	
		.st3{opacity:0.7;fill-rule:evenodd;clip-rule:evenodd;fill:#CC7E9D;stroke:#00758D;stroke-width:7.3918;stroke-miterlimit:10;enable-background:new    ;}
	
		.st4{opacity:0.7;fill-rule:evenodd;clip-rule:evenodd;fill:#CC7E9D;stroke:#00758D;stroke-width:7;stroke-miterlimit:10;enable-background:new    ;}
	.st5{opacity:0.7;fill:#13748C;enable-background:new    ;}
	.st6{fill:none;stroke:#000000;stroke-width:7.0763;stroke-linecap:round;stroke-miterlimit:10;}
	.st7{fill:none;stroke:#000000;stroke-width:7.0488;stroke-linecap:round;stroke-miterlimit:10;}
</style>
<g id="Layer_1">
</g>
<g id="Layer_2">
	<g>
		<path class="st6" d="M48.5,106.4L48.5,106.4c-12.9,0-23.4-10.5-23.4-23.4V59.3c0-1.4,1.7-3.1,4.3-4.7c11.8-7.8,27.5-7.9,39,0.4
			c2.1,1.6,3.6,3.1,3.6,4.4V83C72,95.9,61.5,106.4,48.5,106.4z"/>
		<g>
			<path d="M96.8-5.5c0.6,24.3,0.5,48.7,0.2,73l-0.1,9.1c0,1.5,0,2.9-0.1,4.9c-0.1,1.8-0.5,3.6-1,5.3c-0.3,0.9-0.6,1.7-0.8,2.6
				L93.9,92c-0.7,1.6-1.2,3.3-2,4.9c-1.4,3.2-3.2,6.2-5.2,9c-8.2,11.1-20.8,18.4-34.2,19.5c-6.7,0.5-13.5-0.4-19.7-2.8
				c-6.3-2.4-12.1-6.1-16.9-10.8c-2.4-2.4-4.6-5-6.5-7.9c-0.9-1.4-1.8-2.9-2.6-4.5c-0.4-0.8-0.8-1.5-1.1-2.3
				c-0.4-0.8-0.7-1.6-1.1-2.4c-1.4-3.2-2.9-6.5-3.6-10.1c-0.1-0.9-0.3-1.8-0.4-2.7c0-0.5-0.1-0.9-0.1-1.4c0-0.5,0-0.9,0-1.3
				l-0.1-4.6C-0.3,50.3-0.5,26,0.3,1.6c0.1-4.4,3.8-7.8,8.2-7.7c4.2,0.1,7.6,3.6,7.7,7.7c0.8,24.3,0.6,48.7,0.1,73l-0.1,4.6l0,1
				c0,0.3,0,0.6,0,0.9c0,0.6,0,1.2-0.1,1.9c-0.1,2.5-0.2,5.1,0.2,7.7c1,5.1,3.5,10,6.8,14.3c3.3,4.3,7.6,7.9,12.6,10.1
				c5,2.3,10.6,3.2,16,2.6c5.5-0.5,10.7-2.7,15.1-5.9c2.2-1.6,4.2-3.5,5.9-5.6c1.7-2.1,3.3-4.3,4.5-6.6c1.3-2.4,2.2-4.8,3-7.3
				c0.4-1.3,0.7-2.5,0.8-3.8c0.1-0.6,0.1-1.3,0.1-1.9c0-0.6,0-1.3,0-1.9c-0.1-1.3-0.2-2.5-0.2-3.8l-0.1-4.3l-0.1-9.1
				c-0.3-24.3-0.4-48.7,0.2-73c0.1-4.4,3.7-7.9,8.1-7.8C93.3-13.1,96.7-9.7,96.8-5.5z"/>
		</g>
	</g>
	<g>
		<path class="st6" d="M129.1,116.4L129.1,116.4c-12.9,0-23.4-10.5-23.4-23.4V69.3c0-1.4,1.7-3.1,4.3-4.7c11.8-7.8,27.5-7.9,39,0.4
			c2.1,1.6,3.6,3.1,3.6,4.4V93C152.5,105.9,142,116.4,129.1,116.4z"/>
		<g>
			<path d="M177.3,4.5c0.6,24.3,0.5,48.7,0.2,73l-0.1,9.1c0,1.5,0,2.9-0.1,4.9c-0.1,1.8-0.5,3.6-1,5.3c-0.3,0.9-0.6,1.7-0.8,2.6
				l-0.9,2.5c-0.7,1.6-1.2,3.3-2,4.9c-1.4,3.2-3.2,6.2-5.2,9c-8.2,11.1-20.8,18.4-34.2,19.5c-6.7,0.5-13.5-0.4-19.7-2.8
				c-6.3-2.4-12.1-6.1-16.9-10.8c-2.4-2.4-4.6-5-6.5-7.9c-0.9-1.4-1.8-2.9-2.6-4.5c-0.4-0.8-0.8-1.5-1.1-2.3
				c-0.4-0.8-0.7-1.6-1.1-2.4c-1.4-3.2-2.9-6.5-3.6-10.1c-0.1-0.9-0.3-1.8-0.4-2.7c0-0.5-0.1-0.9-0.1-1.4c0-0.5,0-0.9,0-1.3
				l-0.1-4.6c-0.5-24.3-0.7-48.7,0.1-73c0.1-4.4,3.8-7.8,8.2-7.7c4.2,0.1,7.6,3.6,7.7,7.7c0.8,24.3,0.6,48.7,0.1,73l-0.1,4.6l0,1
				c0,0.3,0,0.6,0,0.9c0,0.6,0,1.2-0.1,1.9c-0.1,2.5-0.2,5.1,0.2,7.7c1,5.1,3.5,10,6.8,14.3c3.3,4.3,7.6,7.9,12.6,10.1
				c5,2.3,10.6,3.2,16,2.6c5.5-0.5,10.7-2.7,15.1-5.9c2.2-1.6,4.2-3.5,5.9-5.6c1.7-2.1,3.3-4.3,4.5-6.6c1.3-2.4,2.2-4.8,3-7.3
				c0.4-1.3,0.7-2.5,0.8-3.8c0.1-0.6,0.1-1.3,0.1-1.9c0-0.6,0-1.3,0-1.9c-0.1-1.3-0.2-2.5-0.2-3.8l-0.1-4.3l-0.1-9.1
				c-0.3-24.3-0.4-48.7,0.2-73c0.1-4.4,3.7-7.9,8.1-7.8C173.8-3.1,177.2,0.3,177.3,4.5z"/>
		</g>
	</g>
	<g>
		<path class="st6" d="M209.7,106.4L209.7,106.4c-12.9,0-23.4-10.5-23.4-23.4V59.3c0-1.4,1.7-3.1,4.3-4.7c11.8-7.8,27.5-7.9,39,0.4
			c2.1,1.6,3.6,3.1,3.6,4.4V83C233.1,95.9,222.6,106.4,209.7,106.4z"/>
		<g>
			<path d="M257.9-5.5c0.6,24.3,0.5,48.7,0.2,73l-0.1,9.1c0,1.5,0,2.9-0.1,4.9c-0.1,1.8-0.5,3.6-1,5.3c-0.3,0.9-0.6,1.7-0.8,2.6
				L255,92c-0.7,1.6-1.2,3.3-2,4.9c-1.4,3.2-3.2,6.2-5.2,9c-8.2,11.1-20.8,18.4-34.2,19.5c-6.7,0.5-13.5-0.4-19.7-2.8
				c-6.3-2.4-12.1-6.1-16.9-10.8c-2.4-2.4-4.6-5-6.5-7.9c-0.9-1.4-1.8-2.9-2.6-4.5c-0.4-0.8-0.8-1.5-1.1-2.3
				c-0.4-0.8-0.7-1.6-1.1-2.4c-1.4-3.2-2.9-6.5-3.6-10.1c-0.1-0.9-0.3-1.8-0.4-2.7c0-0.5-0.1-0.9-0.1-1.4c0-0.5,0-0.9,0-1.3
				l-0.1-4.6c-0.5-24.3-0.7-48.7,0.1-73c0.1-4.4,3.8-7.8,8.2-7.7c4.2,0.1,7.6,3.6,7.7,7.7c0.8,24.3,0.6,48.7,0.1,73l-0.1,4.6l0,1
				c0,0.3,0,0.6,0,0.9c0,0.6,0,1.2-0.1,1.9c-0.1,2.5-0.2,5.1,0.2,7.7c1,5.1,3.5,10,6.8,14.3c3.3,4.3,7.6,7.9,12.6,10.1
				c5,2.3,10.6,3.2,16,2.6c5.5-0.5,10.7-2.7,15.1-5.9c2.2-1.6,4.2-3.5,5.9-5.6c1.7-2.1,3.3-4.3,4.5-6.6c1.3-2.4,2.2-4.8,3-7.3
				c0.4-1.3,0.7-2.5,0.8-3.8c0.1-0.6,0.1-1.3,0.1-1.9c0-0.6,0-1.3,0-1.9c-0.1-1.3-0.2-2.5-0.2-3.8l-0.1-4.3l-0.1-9.1
				c-0.3-24.3-0.4-48.7,0.2-73c0.1-4.4,3.7-7.9,8.1-7.8C254.4-13.1,257.8-9.7,257.9-5.5z"/>
		</g>
	</g>
	<g>
		<path class="st6" d="M292.4,86.4L292.4,86.4C279.5,86.4,269,75.9,269,63V39.3c0-1.4,1.7-3.1,4.3-4.7c11.8-7.8,27.5-7.9,39,0.4
			c2.1,1.6,3.6,3.1,3.6,4.4V63C315.9,75.9,305.4,86.4,292.4,86.4z"/>
		<g>
			<path d="M340.7-25.5c0.6,24.3,0.5,48.7,0.2,73l-0.1,9.1c0,1.5,0,2.9-0.1,4.9c-0.1,1.8-0.5,3.6-1,5.3c-0.3,0.9-0.6,1.7-0.8,2.6
				l-0.9,2.5c-0.7,1.6-1.2,3.3-2,4.9c-1.4,3.2-3.2,6.2-5.2,9c-8.2,11.1-20.8,18.4-34.2,19.5c-6.7,0.5-13.5-0.4-19.7-2.8
				c-6.3-2.4-12.1-6.1-16.9-10.8c-2.4-2.4-4.6-5-6.5-7.9c-0.9-1.4-1.8-2.9-2.6-4.5c-0.4-0.8-0.8-1.5-1.1-2.3
				c-0.4-0.8-0.7-1.6-1.1-2.4c-1.4-3.2-2.9-6.5-3.6-10.1c-0.1-0.9-0.3-1.8-0.4-2.7c0-0.5-0.1-0.9-0.1-1.4c0-0.5,0-0.9,0-1.3
				l-0.1-4.6c-0.5-24.3-0.7-48.7,0.1-73c0.1-4.4,3.8-7.8,8.2-7.7c4.2,0.1,7.6,3.6,7.7,7.7c0.8,24.3,0.6,48.7,0.1,73l-0.1,4.6l0,1
				c0,0.3,0,0.6,0,0.9c0,0.6,0,1.2-0.1,1.9c-0.1,2.5-0.2,5.1,0.2,7.7c1,5.1,3.5,10,6.8,14.3c3.3,4.3,7.6,7.9,12.6,10.1
				c5,2.3,10.6,3.2,16,2.6c5.5-0.5,10.7-2.7,15.1-5.9c2.2-1.6,4.2-3.5,5.9-5.6c1.7-2.1,3.3-4.3,4.5-6.6c1.3-2.4,2.2-4.8,3-7.3
				c0.4-1.3,0.7-2.5,0.8-3.8c0.1-0.6,0.1-1.3,0.1-1.9c0-0.6,0-1.3,0-1.9c-0.1-1.3-0.2-2.5-0.2-3.8l-0.1-4.3l-0.1-9.1
				c-0.3-24.3-0.4-48.7,0.2-73c0.1-4.4,3.7-7.9,8.1-7.8C337.2-33.1,340.6-29.7,340.7-25.5z"/>
		</g>
	</g>
	<rect x="3.4" y="3.2" class="st7" width="333.1" height="135.5"/>
</g>
</svg>
