<?xml version="1.0" encoding="utf-8"?>
<!-- Generator: Adobe Illustrator 25.3.1, SVG Export Plug-In . SVG Version: 6.00 Build 0)  -->
<svg version="1.1" xmlns="http://www.w3.org/2000/svg" xmlns:xlink="http://www.w3.org/1999/xlink" x="0px" y="0px"
	 viewBox="0 0 340 142" style="enable-background:new 0 0 340 142;" xml:space="preserve">
<style type="text/css">
	.st0{opacity:0.7;fill-rule:evenodd;clip-rule:evenodd;fill:#13748C;enable-background:new    ;}
	
		.st1{opacity:0.7;fill-rule:evenodd;clip-rule:evenodd;fill:#CC7E9D;stroke:#00758D;stroke-width:7.7731;stroke-miterlimit:10;enable-background:new    ;}
	
		.st2{opacity:0.7;fill-rule:evenodd;clip-rule:evenodd;fill:#CC7E9D;stroke:#00758D;stroke-width:7.3785;stroke-miterlimit:10;enable-background:new    ;}
	
		.st3{opacity:0.7;fill-rule:evenodd;clip-rule:evenodd;fill:#CC7E9D;stroke:#00758D;stroke-width:7.3918;stroke-miterlimit:10;enable-background:new    ;}
	
		.st4{opacity:0.7;fill-rule:evenodd;clip-rule:evenodd;fill:#CC7E9D;stroke:#00758D;stroke-width:7;stroke-miterlimit:10;enable-background:new    ;}
	.st5{opacity:0.7;fill:#13748C;enable-background:new    ;}
	.st6{fill:none;stroke:#000000;stroke-width:7.0763;stroke-linecap:round;stroke-miterlimit:10;}
	.st7{fill:none;stroke:#000000;stroke-width:7.0488;stroke-linecap:round;stroke-miterlimit:10;}
</style>
<g id="Layer_1">
	<path class="st0" d="M33.8,128.3v7.7h86.1c-14.5-18.1-37-28.1-57.7-33.1c-2.2-0.1-4.4-0.7-6.5-1.4c-9.7-1.9-18.6-2.8-25.5-2.9
		c0.9,7.9,1.9,15.9,2.8,22.7c7.6,0.6,21.5,2.6,31,7.1l-2.6,5.4c-8.1-3.8-20.2-5.7-27.6-6.4c0,0.3,0.1,0.6,0.1,0.9L33.8,128.3z
		 M29.4,92.5c4,0.1,8.6,0.3,13.7,0.9c-2.9-2.6-5.6-5.4-7.8-7.7c-0.9-1-1.8-1.9-2.5-2.6c-1.7-1.7-3.1-4.7-4.2-7.8
		c-0.5-1.3-0.9-2.7-1.4-4.1c0.1,1.5,0.3,3.2,0.5,5.2C28.1,80.9,28.7,86.5,29.4,92.5z M26.7,40.8c0.8,5.6,2.4,14.2,4.3,22
		c1,3.9,2,7.6,3.1,10.5c1.1,3.1,2.1,4.9,2.8,5.6c0.9,0.9,1.9,1.9,2.9,2.9c2.6,2.6,5.4,5.6,8.7,8.3c2.9,2.4,5.8,4.3,8.8,5.5
		c1.9,0.4,3.7,0.8,5.6,1.2c5.8,0.1,14.4-1.1,21.8-5c7.4-3.9,13.6-10.4,14.6-21.2c2.1-20.9,1.3-32.2,0.6-41.4
		c-0.3-3.9-0.6-7.5-0.6-11.3V6H19c1.3,4.6,2.7,9.9,4,15.1c1,4,1.9,8,2.6,11.4C26.2,35.7,26.7,38.7,26.7,40.8z M340,0v142H0V0H340z
		 M6,6h6.8c1.4,4.9,3,10.8,4.4,16.5c1,4,1.9,7.8,2.5,11.1c0.6,3.3,1,5.9,1,7.4v10.4c-2.5,2.9-6.2,6.8-10.1,10.2
		C9,62.9,7.5,64.1,6,65.1V6z M6,72.2V136h21.8v-7.3c-0.2-1.3-0.4-2.8-0.5-4.3c-1-8.2-2.3-18.7-3.5-28.5c-0.8-6.9-1.6-13.6-2.1-18.9
		c-0.5-5.2-0.9-9.3-0.9-11v-5.8c-1.9,2-4,4-6.2,5.9c-2.3,2-4.7,3.8-7.1,5.2C7,71.6,6.5,71.9,6,72.2z M127.4,136H334V51.7l-4.9,1.7
		l-12.8,2.2c-4.8,13.9-9.2,26-11.5,31.1c-6.9,15.4-23.6,28.3-41.8,27.3c-8.4-0.5-13.8-7.4-17-14.3c-0.9-2-1.7-4.1-2.4-6.2
		c-0.9,3.2-1.9,6.1-3.1,8c-0.3,0.5-0.6,1-0.9,1.6c-2.5,4.1-5.4,9-10,12.8c-5.4,4.5-13,7.4-24.4,7.1c-11.8-0.3-21.4-5.5-27.2-14.9
		c-1.4-2.3-2.5-4.8-3.4-7.4c-2,4.1-4.8,7.8-8.8,10.8c-4.6,3.5-10.6,5.8-18.3,6.5c-15.6,1.4-27.1-5.6-34.9-15.2
		c-4.9-6-8.3-13-10.6-19.9c-3.3,6.6-8.7,11.2-14.5,14.3c-3.3,1.7-6.8,3-10.2,3.9C96,107.6,115,118.4,127.4,136z M105.4,70.9
		c1.3,8.8,5.1,19.7,11.9,28c6.8,8.4,16.5,14.2,29.7,13c6.7-0.6,11.6-2.6,15.2-5.3c3.6-2.7,6.1-6.3,7.8-10.4c1.1-2.5,1.9-5.2,2.4-7.9
		c-0.2-3.6,0-7.3,0.5-11.3c0,0,0,0,0,0c-0.8,5.6-2.3,11-3.5,14.5c-0.4,3.1-1.9,7.2-5.3,10.7c-3.6,3.7-9.1,6.4-16.9,6.1
		c-9.1-0.3-15.1-1.7-19.4-3.8c-4.4-2.2-6.6-5-8.3-7.5c-0.5-0.8-0.9-1.8-1.2-2.8c-0.3-1-0.6-2.1-0.8-3.3c-0.5-2.4-0.8-5.3-1.1-8.3
		c-0.6-6-0.8-12.5-0.9-16.7l0-0.3l0.1-0.3c0.4-2,1.2-5,2.6-7.9c1.3-2.8,3.4-6,6.5-7.7c1.5-0.8,3.3-1.4,5.2-1.8
		c1.9-0.4,4.1-0.7,6.2-1c4.2-0.5,8.5-0.6,11.2-0.6h0.1l0.1,0c3.3,0.3,8,1.2,12.4,3.3c4.5,2.1,9,5.5,11.7,10.8
		c1.2,2.3,1.7,5.1,1.8,7.8c0.1,2.5-0.1,5.2-0.4,7.8c0.3-1.9,0.6-3.7,1-5.7c0.4-10.8,3.8-44.4,5.9-64.6h-74.6v12
		c0,3.2,0.2,6.5,0.5,10.3C106.6,37.6,107.5,49.7,105.4,70.9z M186,6c-2.1,20.4-5.6,54.7-5.9,65.1c0,0.3,0,0.5,0,0.8
		c-0.2,4.6-0.4,10.7-1.6,16.9c0.4,6.5,2.1,11.9,4.7,16.2c4.6,7.5,12.3,11.8,22.2,12c10.3,0.2,16.3-2.3,20.5-5.8
		c1.3-1.1,2.4-2.2,3.5-3.5c-5,4.6-13.2,8-24.5,6.2c-7.9-1.3-13.2-3.6-17-6.7c-3.8-3.2-5.7-7-7-10.7c-1.6-4.3-1-9.9,0-14.7
		c1.1-4.9,2.8-9.5,4.2-12.2c2.3-4.6,7-8.6,9-10.1l0,0l0,0c1.1-0.8,2.4-1.2,3.7-1.5c1.3-0.3,2.9-0.5,4.5-0.6c3.2-0.2,7,0,10.7,0.4
		c3.7,0.4,7.4,1.1,10.6,2.1c1.6,0.5,3.1,1,4.3,1.7c1.3,0.6,2.5,1.4,3.4,2.4c1.7,1.9,2.7,5,3.4,8c0.7,3.2,1.1,6.9,1.3,10.6
		c0.2,3.7,0.2,7.4-0.1,10.6c-0.2,2.3-0.5,4.5-1,6.3c0.2-0.4,0.4-0.7,0.7-1.1c0.9-1.4,1.8-4,2.7-7.7c0.9-3.6,1.7-7.9,2.4-12.6
		c2.1-14,3.3-30.3,3-36.9c-0.2-5,1.1-13.2,2.7-21c1-4.9,2.2-9.9,3.2-14.1H186z M255.8,6c-1.1,4.5-2.4,9.9-3.5,15.3
		c-1.6,7.9-2.7,15.4-2.6,19.5c0.3,7.1-0.8,23.6-3,37.7c0.5,5,2,12.4,4.9,18.5c3,6.5,7,10.6,11.9,10.9c15.1,0.9,29.8-10.1,35.9-23.7
		c2.3-5,6.8-17.6,11.9-32.2c5.3-15.4,11.2-33,15.5-46H255.8z M333.1,6c-3.9,11.9-9.3,28.2-14.5,43.2l9-1.6l6.4-2.2V6H333.1z
		 M88.9,38.8l0.4,0.5c4.3,6.2,8.1,16,8.9,25.2c0.8,9.1-1.2,19-9.9,23.7c-7.7,4.1-17.3,5.6-25.7,3.9c-8.4-1.7-15.9-6.9-18-16.4
		c-3.8-17.4,6-31.3,8.2-34c0.6-0.7,1.4-1.3,2.2-1.8c0.8-0.5,1.8-1,3-1.6c2.3-1,5.2-2,8.5-2.7c6.5-1.3,14.8-1.4,22,2.9L88.9,38.8z
		 M163.5,90.3l0.1-0.3c1.1-3.2,2.6-8.4,3.4-13.7c0.4-2.6,0.6-5.2,0.5-7.5c-0.1-2.3-0.5-4.1-1.2-5.4c-1.9-3.7-5.2-6.3-8.9-8.1
		c-3.7-1.7-7.5-2.5-10.3-2.8c-2.5,0-6.5,0.2-10.4,0.6c-2,0.2-3.9,0.5-5.5,0.9c-1.7,0.4-2.9,0.8-3.7,1.2c-1.4,0.7-2.7,2.5-3.9,5
		c-1.1,2.2-1.7,4.6-2.1,6.1c0.1,4.1,0.4,10.3,0.9,16c0.3,2.9,0.6,5.6,1,7.7c0.2,1.1,0.4,2,0.6,2.7c0.2,0.7,0.4,1.1,0.5,1.2
		c1.4,2,2.9,3.9,6,5.5c3.2,1.6,8.2,2.9,16.8,3.2c6.3,0.2,10.1-1.9,12.5-4.3c2.4-2.5,3.5-5.6,3.6-7.5L163.5,90.3z M84.7,43.3
		c3.6,5.3,6.7,13.8,7.4,21.7c0.7,8.4-1.3,15-6.7,17.8c-6.5,3.4-14.7,4.7-21.6,3.3c-6.9-1.4-11.9-5.3-13.4-11.8
		c-3.2-14.6,5.1-26.7,7-29c0,0,0,0,0,0c0,0,0.2-0.2,0.7-0.5c0.5-0.3,1.3-0.7,2.3-1.2c1.9-0.9,4.4-1.7,7.2-2.3
		C73,40.3,79.4,40.4,84.7,43.3z M197.5,64.5c-1.7,1.2-5.4,4.5-7.1,7.9c-1.1,2.3-2.7,6.4-3.7,10.8c-1,4.5-1.2,8.7-0.2,11.3
		c1.2,3.3,2.6,6,5.2,8.2c2.7,2.2,6.9,4.2,14.1,5.4c13.7,2.3,21-5,23-9.4c0.4-0.9,0.8-2.9,1.1-6c0.2-2.9,0.3-6.4,0.1-9.8
		c-0.2-3.5-0.6-6.9-1.2-9.6c-0.6-2.9-1.4-4.6-2-5.2c-0.2-0.2-0.7-0.6-1.6-1.1c-0.9-0.4-2.1-0.9-3.4-1.3c-2.7-0.8-6.1-1.5-9.5-1.9
		c-3.4-0.4-6.8-0.5-9.6-0.4c-1.4,0.1-2.6,0.2-3.5,0.4C198.1,64.1,197.6,64.3,197.5,64.5z M278,62.5c-4-1.7-8.2-2.5-9.6-2.5
		c-1.1,0-4.9,0.6-8.8,3.4c-0.2,0.1-0.5,0.4-0.9,1.2c-0.4,0.7-0.7,1.7-1,2.9c-0.6,2.4-1,5.4-1.2,8.4c-0.4,5.1-0.2,9.8-0.2,11.8
		c0,0.3,0,0.5,0,0.7c0,0,0,0.2,0.1,0.5c0.1,0.4,0.3,1,0.5,1.7c0.5,1.4,1.3,3.1,2.5,4.7c2.3,3.1,5.9,5.8,11.6,5.2
		c2.5-0.3,4.7-1.7,6.7-4.3c2-2.6,3.7-6.2,4.9-10.1c1.2-3.9,2-7.9,2.4-11.3c0.4-3.5,0.3-6,0.1-7c-0.1-0.5-0.7-1.4-2.1-2.4
		C281.8,64.3,280,63.3,278,62.5z M286.7,60.5c1.8,1.4,3.6,3.3,4.2,5.7c0.5,2.1,0.5,5.4,0.1,9.1c-0.4,3.8-1.2,8.2-2.6,12.5
		c-1.4,4.3-3.3,8.6-5.9,12c-2.6,3.4-6.2,6.1-10.8,6.6c-8.4,0.9-13.9-3.2-17.1-7.6c-1.6-2.1-2.7-4.4-3.3-6.2
		c-0.3-0.9-0.6-1.7-0.8-2.4c-0.1-0.6-0.3-1.3-0.3-1.9c0-0.1,0-0.3,0-0.5c0-1.7-0.2-7,0.2-12.5c0.2-3.2,0.6-6.5,1.4-9.5
		c0.4-1.5,0.9-2.9,1.5-4.1c0.6-1.2,1.5-2.5,2.7-3.3c5-3.6,10.1-4.6,12.3-4.6c2.6,0,7.5,1.2,11.9,3C282.5,57.9,284.8,59.1,286.7,60.5
		z"/>
</g>
<g id="Layer_2">
</g>
</svg>
